<svg width="140" height="14" viewBox="0 0 140 14" fill="none" xmlns="http://www.w3.org/2000/svg">
<path d="M9.59513 13.6818C9.12539 13.7746 8.54513 13.8475 7.85433 13.9006C7.17735 13.9669 6.54873 14 5.96846 14C4.21385 14 2.91515 13.7945 2.07238 13.3835C1.24343 12.9725 0.690794 12.2898 0.414477 11.3352C0.138159 10.3807 0 8.93561 0 7C0 5.09091 0.138159 3.65909 0.414477 2.70455C0.690794 1.73674 1.24343 1.04735 2.07238 0.636364C2.91515 0.212121 4.21385 0 5.96846 0C6.56255 0 7.19117 0.0331439 7.85433 0.0994317C8.5175 0.16572 9.07013 0.251894 9.51224 0.357955V2.64489C8.31026 2.51231 7.37768 2.44602 6.71452 2.44602C5.45728 2.44602 4.58688 2.53883 4.10332 2.72443C3.61976 2.89678 3.30891 3.27462 3.17075 3.85796C3.03259 4.44129 2.96351 5.48864 2.96351 7C2.96351 8.51136 3.03259 9.55871 3.17075 10.142C3.30891 10.7254 3.61976 11.1098 4.10332 11.2955C4.58688 11.4678 5.45728 11.554 6.71452 11.554C7.76453 11.554 8.72473 11.4877 9.59513 11.3551V13.6818Z" fill="#9C98B2"/>
<path d="M17.9311 14C15.9831 14 14.5946 13.8011 13.7656 13.4034C12.9367 13.0057 12.4117 12.3561 12.1906 11.4545C11.9834 10.553 11.8798 9.06818 11.8798 7C11.8798 4.93182 11.9834 3.44697 12.1906 2.54545C12.4117 1.64394 12.9367 0.994318 13.7656 0.596592C14.5946 0.198864 15.9831 0 17.9311 0C19.8792 0 21.2677 0.198864 22.0966 0.596592C22.9394 0.994318 23.4644 1.64394 23.6716 2.54545C23.8927 3.44697 24.0032 4.93182 24.0032 7C24.0032 9.06818 23.8927 10.553 23.6716 11.4545C23.4644 12.3561 22.9394 13.0057 22.0966 13.4034C21.2677 13.8011 19.8792 14 17.9311 14ZM17.9311 11.554C19.0226 11.554 19.7548 11.4811 20.1279 11.3352C20.5147 11.1894 20.7565 10.8381 20.8532 10.2813C20.9637 9.71117 21.019 8.61742 21.019 7C21.019 5.38258 20.9637 4.29545 20.8532 3.73864C20.7565 3.16856 20.5147 2.81061 20.1279 2.66477C19.7548 2.51894 19.0226 2.44602 17.9311 2.44602C16.8397 2.44602 16.1074 2.51894 15.7344 2.66477C15.3614 2.81061 15.1196 3.16856 15.0091 3.73864C14.8985 4.30871 14.8433 5.39583 14.8433 7C14.8433 8.60417 14.8985 9.69129 15.0091 10.2614C15.1196 10.8314 15.3614 11.1894 15.7344 11.3352C16.1074 11.4811 16.8397 11.554 17.9311 11.554Z" fill="#9C98B2"/>
<path d="M27.0078 0.159091H31.8572C33.902 0.159091 35.3596 0.357955 36.23 0.755682C37.1142 1.14015 37.6668 1.76989 37.8879 2.64489C38.1089 3.51989 38.2194 4.97159 38.2194 7C38.2194 9.02841 38.1089 10.4801 37.8879 11.3551C37.6668 12.2301 37.1142 12.8665 36.23 13.2642C35.3596 13.6487 33.902 13.8409 31.8572 13.8409H27.0078V0.159091ZM31.7122 11.3949C32.9694 11.3949 33.8122 11.3286 34.2405 11.196C34.6688 11.0634 34.9382 10.7254 35.0487 10.1818C35.173 9.63826 35.2352 8.57765 35.2352 7C35.2352 5.43561 35.173 4.38163 35.0487 3.83807C34.9244 3.28125 34.648 2.93655 34.2197 2.80398C33.8053 2.6714 32.9694 2.60511 31.7122 2.60511H29.9506V11.3949H31.7122Z" fill="#9C98B2"/>
<path d="M41.215 13.8409V0.159091H51.0174V2.60511H44.1578V5.70739H50.0434V8.15341H44.1578V11.3949H51.0174V13.8409H41.215Z" fill="#9C98B2"/>
<path d="M66.235 13.8409V4.49432H66.1314L62.4425 13.8409H60.4116L56.7435 4.49432H56.6399V13.8409H53.8836V0.159091H57.9454L61.4271 8.92898H61.5514L65.033 0.159091H69.0742V13.8409H66.235Z" fill="#9C98B2"/>
<path d="M81.6631 13.8409L80.6269 10.8977H75.0729L74.0574 13.8409H71.0939L75.9226 0.159091H79.8808L84.7095 13.8409H81.6631ZM77.8913 2.82386H77.7877L75.8604 8.43182H79.8394L77.8913 2.82386Z" fill="#9C98B2"/>
<path d="M95.4553 13.8409L89.6319 5.15057H89.549V13.8409H86.7098V0.159091H89.7562L95.3309 8.35227H95.4345V0.159091H98.2737V13.8409H95.4553Z" fill="#9C98B2"/>
<path d="M104.505 13.8409V2.72443H100.361V0.159091H111.593V2.72443H107.448V13.8409H104.505Z" fill="#9C98B2"/>
<path d="M121.976 13.8409L119.883 8.8892H116.671V13.8409H113.728V0.159091H120.443C121.672 0.159091 122.605 0.338069 123.24 0.696023C123.89 1.04072 124.318 1.52462 124.525 2.14773C124.746 2.75758 124.857 3.5464 124.857 4.5142C124.857 6.67519 124.18 8.00758 122.826 8.51136L125.106 13.8409H121.976ZM119.261 6.44318C120.063 6.44318 120.643 6.39015 121.002 6.28409C121.375 6.17803 121.61 5.99905 121.707 5.74716C121.817 5.48201 121.873 5.07102 121.873 4.5142C121.873 3.94413 121.817 3.53314 121.707 3.28125C121.61 3.02936 121.382 2.85701 121.023 2.7642C120.678 2.65814 120.097 2.60511 119.282 2.60511H116.671V6.44318H119.261Z" fill="#9C98B2"/>
<path d="M136.954 13.8409L135.917 10.8977H130.363L129.348 13.8409H126.384L131.213 0.159091H135.171L140 13.8409H136.954ZM133.182 2.82386H133.078L131.151 8.43182H135.13L133.182 2.82386Z" fill="#9C98B2"/>
</svg>
