<svg width="73" height="35" viewBox="0 0 73 35" fill="none" xmlns="http://www.w3.org/2000/svg">
<path id="Craft Copy" fill-rule="evenodd" clip-rule="evenodd" d="M11.7728 2.54844C11.4639 2.54844 11.1035 2.612 10.6917 2.73913C10.2798 2.86626 9.85933 3.10606 9.43029 3.45856C9.00125 3.81105 8.5808 4.30511 8.16892 4.94075C7.75704 5.57639 7.38807 6.39982 7.06199 7.41106C6.73592 8.42231 6.47278 9.65023 6.27256 11.0949C6.07234 12.5395 5.97223 14.2442 5.97223 16.2089C5.97223 18.0811 6.07234 19.7049 6.27256 21.0802C6.47278 22.4554 6.74164 23.6256 7.07916 24.5906C7.41667 25.5556 7.8028 26.3444 8.23756 26.9569C8.67233 27.5694 9.12996 28.0462 9.61049 28.3871C10.091 28.728 10.5715 28.9621 11.0521 29.0892C11.5326 29.2163 11.9845 29.2799 12.4078 29.2799C12.854 29.2799 13.306 29.2221 13.7636 29.1065C14.2212 28.9909 14.6703 28.8234 15.1108 28.6038C15.5513 28.3842 15.9746 28.1184 16.3807 27.8064C16.7869 27.4943 17.1616 27.136 17.5048 26.7315L18.2771 27.5116C17.9339 27.9393 17.522 28.3755 17.0415 28.8205C16.5609 29.2654 16.0032 29.6699 15.3682 30.034C14.7332 30.398 14.021 30.6956 13.2316 30.9268C12.4421 31.1579 11.5669 31.2735 10.6059 31.2735C9.10708 31.2735 7.71414 30.9845 6.42701 30.4067C5.13989 29.8288 4.01868 28.9303 3.06334 27.711C2.10801 26.4917 1.35863 24.9287 0.815175 23.0217C0.271722 21.1148 0 18.8323 0 16.1742C0 13.6779 0.286024 11.4878 0.858079 9.60401C1.43014 7.7202 2.20812 6.14557 3.19206 4.88007C4.17599 3.61457 5.33153 2.66112 6.6587 2.0197C7.98587 1.37829 9.39882 1.05758 10.8976 1.05758C11.893 1.05758 12.7997 1.15293 13.6177 1.34362C14.4358 1.53431 15.1422 1.81168 15.7372 2.17572C16.3321 2.53977 16.7926 2.99049 17.1187 3.5279C17.4448 4.0653 17.6078 4.67493 17.6078 5.3568C17.6078 5.66884 17.5563 5.99532 17.4533 6.33626C17.3504 6.67719 17.1931 6.98923 16.9814 7.27238C16.7697 7.55553 16.5094 7.78667 16.2005 7.9658C15.8916 8.14494 15.5312 8.2345 15.1194 8.2345C14.7532 8.2345 14.4701 8.1536 14.2699 7.99181C14.0696 7.83001 13.9209 7.6162 13.8237 7.35039C13.7264 7.08458 13.6635 6.78121 13.6349 6.44027C13.6063 6.09934 13.5863 5.74974 13.5748 5.39147C13.5634 5.0332 13.5376 4.6836 13.4976 4.34267C13.4575 4.00174 13.3775 3.69837 13.2573 3.43255C13.1372 3.16674 12.9627 2.95294 12.7339 2.79114C12.5051 2.62934 12.1847 2.54844 11.7728 2.54844ZM25.3659 12.6367C25.8007 11.9664 26.264 11.3596 26.756 10.8165C26.962 10.5853 27.1851 10.3599 27.4253 10.1404C27.6656 9.92078 27.9144 9.72431 28.1718 9.55096C28.4293 9.3776 28.6953 9.23892 28.9699 9.1349C29.2444 9.03089 29.519 8.97888 29.7936 8.97888C30.3771 8.97888 30.8347 9.15512 31.1665 9.50762C31.4983 9.86011 31.6642 10.3542 31.6642 10.9898C31.6642 11.3827 31.6328 11.7612 31.5698 12.1253C31.5069 12.4893 31.3839 12.9314 31.2009 13.4515H30.7203C30.6517 13.0932 30.4915 12.7956 30.2398 12.5587C29.9881 12.3218 29.622 12.2033 29.1415 12.2033C28.7868 12.2033 28.4378 12.2697 28.0946 12.4027C27.7514 12.5356 27.4167 12.7002 27.0907 12.8967C26.7646 13.0932 26.4557 13.307 26.1639 13.5381C25.8722 13.7693 25.6062 13.9889 25.3659 14.1969V25.4477C25.3659 25.5979 25.343 25.777 25.2973 25.9851C25.2515 26.1931 25.14 26.3896 24.9626 26.5745C24.7853 26.7594 24.5221 26.9183 24.1732 27.0512C23.8242 27.1841 23.3466 27.2506 22.7402 27.2506C22.1338 27.2506 21.6562 27.1783 21.3072 27.0339C20.9583 26.8894 20.6923 26.7189 20.5092 26.5225C20.3261 26.326 20.2117 26.1238 20.166 25.9157C20.1202 25.7077 20.0973 25.5401 20.0973 25.413V12.0299C20.0973 11.6948 20.0201 11.403 19.8656 11.1545C19.7112 10.906 19.4509 10.7818 19.0848 10.7818C18.8903 10.7818 18.7244 10.8165 18.5871 10.8858C18.4498 10.9551 18.3011 11.0534 18.1409 11.1805L17.7805 10.7471C18.0436 10.5275 18.3383 10.3108 18.6643 10.097C18.9904 9.88322 19.3422 9.69542 19.7198 9.53362C20.0973 9.37182 20.5035 9.23892 20.9382 9.1349C21.373 9.03089 21.8306 8.97888 22.3112 8.97888C22.8031 8.97888 23.2236 9.04533 23.5725 9.17824C23.9215 9.31115 24.2075 9.4845 24.4306 9.69831C24.6537 9.91211 24.8282 10.1519 24.954 10.4177C25.0799 10.6835 25.1743 10.9522 25.2372 11.2238C25.3001 11.4954 25.3373 11.7555 25.3488 12.0039C25.3602 12.2524 25.3659 12.4633 25.3659 12.6367ZM41.2229 17.9945C41.2229 17.7055 41.1314 17.486 40.9483 17.3357C40.7653 17.1855 40.5307 17.1104 40.2447 17.1104C39.8442 17.1104 39.4638 17.2028 39.1034 17.3877C38.743 17.5726 38.4256 17.8442 38.151 18.2025C37.8764 18.5608 37.659 19.0028 37.4988 19.5287C37.3387 20.0545 37.2586 20.6641 37.2586 21.3576C37.2586 22.0279 37.3072 22.5826 37.4044 23.0218C37.5017 23.4609 37.6333 23.8105 37.7992 24.0706C37.9651 24.3306 38.1567 24.5126 38.3741 24.6166C38.5915 24.7207 38.8203 24.7727 39.0605 24.7727C39.358 24.7727 39.6383 24.6947 39.9015 24.5386C40.1646 24.3826 40.3934 24.1833 40.5879 23.9406C40.7824 23.6979 40.9369 23.4263 41.0513 23.1258C41.1657 22.8253 41.2229 22.5248 41.2229 22.2243V17.9945ZM38.4939 10.4004C38.1049 10.4004 37.7445 10.4466 37.4127 10.5391C37.0809 10.6315 36.7949 10.7471 36.5546 10.8858C36.3143 11.0245 36.1256 11.1776 35.9883 11.3452C35.851 11.5128 35.7823 11.6717 35.7823 11.8219C35.7823 11.9953 35.871 12.1195 36.0483 12.1946C36.2257 12.2697 36.423 12.3564 36.6404 12.4547C36.8578 12.5529 37.0551 12.6916 37.2325 12.8707C37.4098 13.0499 37.4985 13.3243 37.4985 13.6942C37.4985 13.9369 37.4499 14.1593 37.3526 14.3616C37.2554 14.5638 37.1238 14.743 36.9579 14.899C36.792 15.055 36.5975 15.1763 36.3744 15.263C36.1513 15.3497 35.9196 15.393 35.6794 15.393C35.0387 15.393 34.521 15.1735 34.1262 14.7343C33.7315 14.2951 33.5342 13.7115 33.5342 12.9834C33.5342 12.2784 33.7172 11.6746 34.0833 11.1718C34.4495 10.6691 34.9271 10.2559 35.5163 9.93234C36.1055 9.60874 36.772 9.36893 37.5157 9.21291C38.2593 9.05689 39.003 8.97888 39.7467 8.97888C40.6391 8.97888 41.4914 9.07712 42.3037 9.27359C43.1161 9.47006 43.834 9.78209 44.4575 10.2097C45.0811 10.6373 45.5787 11.1805 45.9506 11.8392C46.3224 12.498 46.5083 13.2954 46.5083 14.2316V24.0262C46.5083 24.1302 46.514 24.2457 46.5255 24.3729C46.5369 24.5 46.5655 24.6156 46.6113 24.7196C46.6571 24.8236 46.7257 24.9103 46.8172 24.9796C46.9088 25.0489 47.0403 25.0836 47.212 25.0836C47.4179 25.0836 47.6095 25.0056 47.7869 24.8496C47.9642 24.6936 48.1215 24.5347 48.2588 24.3729L48.6878 24.7369C48.5162 24.9796 48.3103 25.2454 48.07 25.5343C47.8298 25.8233 47.538 26.0949 47.1948 26.3491C46.8516 26.6034 46.4511 26.8172 45.9935 26.9905C45.5358 27.1639 45.0153 27.2506 44.4318 27.2506C43.711 27.2506 43.0703 27.0339 42.5097 26.6005C41.9491 26.1671 41.583 25.4997 41.4113 24.5982C41.0452 25.0952 40.6648 25.5112 40.2701 25.8464C39.8754 26.1815 39.4721 26.4531 39.0602 26.6612C38.6483 26.8692 38.2336 27.0194 37.816 27.1119C37.3984 27.2043 36.9779 27.2506 36.5546 27.2506C36.0054 27.2506 35.4734 27.1639 34.9586 26.9905C34.4437 26.8172 33.9832 26.5427 33.5771 26.1671C33.1709 25.7915 32.8448 25.3032 32.5989 24.7022C32.3529 24.1013 32.2299 23.3674 32.2299 22.5006C32.2299 21.4489 32.4358 20.5879 32.8477 19.9176C33.2596 19.2473 33.8002 18.6839 34.4695 18.2274C35.1388 17.7709 35.8996 17.3809 36.752 17.0573C37.6043 16.7337 38.4767 16.3927 39.3691 16.0345C40.0327 15.7686 40.5161 15.3728 40.8193 14.847C41.1224 14.3211 41.274 13.7808 41.274 13.2261C41.274 12.3709 41.0252 11.6861 40.5275 11.1718C40.0298 10.6575 39.3519 10.4004 38.4939 10.4004ZM58.5564 1.40369C58.8424 1.26501 59.1456 1.19567 59.466 1.19567C59.8435 1.19567 60.1696 1.26501 60.4442 1.40369C60.7188 1.54238 60.9562 1.71573 61.1564 1.92376C61.3566 2.13179 61.5253 2.35715 61.6626 2.59985C61.7999 2.84254 61.9258 3.0679 62.0402 3.27593C62.1546 3.48396 62.2633 3.65731 62.3663 3.796C62.4692 3.93468 62.5836 4.00403 62.7095 4.00403C62.9154 4.00403 63.1013 3.94913 63.2672 3.83934C63.4331 3.72955 63.5733 3.58508 63.6877 3.40595C63.8021 3.22681 63.8908 3.03035 63.9537 2.81654C64.0166 2.60273 64.0481 2.39182 64.0481 2.18379C64.0481 1.90642 63.9394 1.63483 63.722 1.36902C63.5046 1.10321 63.1843 0.86918 62.761 0.666931C62.3377 0.464681 61.8114 0.302885 61.1821 0.181535C60.5528 0.0601856 59.8321 -0.000488281 59.0198 -0.000488281C58.6422 -0.000488281 58.2017 0.0341825 57.6983 0.103525C57.1949 0.172868 56.6772 0.305772 56.1452 0.502243C55.6132 0.698713 55.0898 0.964523 54.5749 1.29968C54.0601 1.63483 53.5996 2.06822 53.1934 2.59985C52.7872 3.13147 52.4612 3.77577 52.2152 4.53276C51.9692 5.28975 51.8462 6.17674 51.8462 7.19377V9.22203H48.6885V10.4702H51.8462V25.0147C51.8462 25.7197 51.8205 26.4247 51.769 27.1297C51.7175 27.8346 51.6288 28.5107 51.503 29.1579C51.3771 29.8051 51.2055 30.4119 50.9881 30.9782C50.7708 31.5444 50.5019 32.0356 50.1815 32.4517C49.8612 32.8677 49.4779 33.1942 49.0317 33.4311C48.5855 33.6681 48.0707 33.7865 47.4872 33.7865C47.0524 33.7865 46.6834 33.7229 46.3802 33.5958C46.0771 33.4687 45.8225 33.3127 45.6166 33.1278C45.4106 32.9428 45.2419 32.7377 45.1103 32.5123C44.9787 32.287 44.8614 32.0819 44.7585 31.8969C44.6555 31.712 44.5554 31.556 44.4581 31.4289C44.3609 31.3017 44.2493 31.2382 44.1235 31.2382C43.9061 31.2382 43.7145 31.2931 43.5486 31.4029C43.3827 31.5127 43.2425 31.6542 43.1281 31.8276C43.0137 32.001 42.9279 32.1945 42.8707 32.4083C42.8135 32.6221 42.7849 32.8331 42.7849 33.0411C42.7849 33.33 42.9079 33.5929 43.1539 33.8298C43.3999 34.0668 43.7288 34.2719 44.1407 34.4453C44.5525 34.6186 45.0273 34.7544 45.5651 34.8526C46.1028 34.9509 46.6634 35 47.2469 35C48.8944 35 50.336 34.7284 51.5716 34.1852C52.8073 33.642 53.8369 32.888 54.6607 31.9229C55.4845 30.9579 56.0994 29.8109 56.5056 28.4818C56.9117 27.1528 57.1148 25.7024 57.1148 24.1306V10.4702H60.3862V10.4709H62.3083V23.3166C62.3083 23.9984 62.417 24.5821 62.6344 25.0675C62.8518 25.5529 63.1407 25.9573 63.5011 26.2809C63.8615 26.6045 64.2733 26.8415 64.7367 26.9917C65.2001 27.1419 65.6834 27.2171 66.1869 27.2171C67.0793 27.2171 67.8201 27.0899 68.4093 26.8357C68.9985 26.5814 69.4876 26.2665 69.8766 25.8909C70.2656 25.5153 70.5774 25.1079 70.8119 24.6687C71.0464 24.2296 71.2495 23.8251 71.4211 23.4552L70.8891 23.2125C70.7404 23.5361 70.5631 23.8193 70.3571 24.062C70.1855 24.2816 69.9796 24.478 69.7393 24.6514C69.499 24.8248 69.2245 24.9114 68.9155 24.9114C68.5151 24.9114 68.2005 24.793 67.9717 24.5561C67.7428 24.3191 67.6284 23.8944 67.6284 23.2819V10.4709H70.2885C71.2381 10.4709 71.9274 10.2484 72.3564 9.8035C72.7855 9.35855 73 8.76048 73 8.00926C73 7.82435 72.9743 7.63944 72.9228 7.45453C72.8713 7.26961 72.7941 7.10493 72.6911 6.96046C72.5881 6.816 72.4594 6.70043 72.305 6.61375C72.1505 6.52707 71.9703 6.48374 71.7644 6.48374C71.444 6.48374 71.1837 6.57619 70.9835 6.76111C70.7833 6.94602 70.6832 7.20027 70.6832 7.52387C70.6832 7.78968 70.7404 7.98037 70.8548 8.09594C70.9692 8.21151 71.0979 8.30108 71.2409 8.36464C71.3839 8.42821 71.5127 8.48021 71.6271 8.52066C71.7415 8.56111 71.7987 8.63912 71.7987 8.75469C71.7987 9.06674 71.341 9.22275 70.4258 9.22275H67.6284V4.10876H66.2555C66.0381 5.07956 65.672 5.89432 65.1572 6.55308C64.6423 7.21183 64.0846 7.73767 63.4839 8.13061C62.8832 8.52356 62.2969 8.80381 61.7248 8.97139C61.1835 9.12996 60.7549 9.2135 60.439 9.22203H57.1148V4.95748C57.1148 4.28717 57.1777 3.7151 57.3036 3.24126C57.4294 2.76742 57.5982 2.37737 57.8099 2.07111C58.0215 1.76485 58.2704 1.54238 58.5564 1.40369Z" fill="#9C98B2"/>
</svg>
