<svg width="160" height="35" viewBox="0 0 160 35" fill="none" xmlns="http://www.w3.org/2000/svg">
<path fill-rule="evenodd" clip-rule="evenodd" d="M17.5 34.125C26.6817 34.125 34.125 26.6817 34.125 17.5C34.125 8.31827 26.6817 0.875 17.5 0.875C8.31827 0.875 0.875 8.31827 0.875 17.5C0.875 26.6817 8.31827 34.125 17.5 34.125ZM17.5 35C27.165 35 35 27.165 35 17.5C35 7.83502 27.165 0 17.5 0C7.83502 0 0 7.83502 0 17.5C0 27.165 7.83502 35 17.5 35Z" fill="#9C98B2"/>
<path d="M27.241 20.6164H28.4375L26.8728 19.0282C24.6332 16.7508 21.5344 15.4623 18.2823 15.4623H16.7177C13.4962 15.4623 10.3975 16.7508 8.12719 19.0282L6.5625 20.6164H7.75903C10.9805 20.6164 14.0792 19.3279 16.3495 17.0505L17.5153 15.8818C16.8404 19.8973 10.9805 26.25 10.9805 26.25H24.1116C24.1116 26.25 18.313 19.9872 17.5767 15.9717L18.6505 17.0805C20.8902 19.3279 23.9889 20.6164 27.241 20.6164Z" fill="#9C98B2"/>
<path d="M16.5336 13.125L17.4847 12.1661L18.4358 13.125C20.2766 15.0129 22.8537 16.0617 25.5229 16.0617H26.5047L25.2161 14.7432C23.3753 12.8553 20.7981 11.8065 18.129 11.8065H16.8404C14.1712 11.8065 11.6247 12.8553 9.75326 14.7432L8.46469 16.0916H9.44646C12.1156 16.0916 14.6928 15.0129 16.5336 13.125Z" fill="#9C98B2"/>
<path d="M16.7177 9.82877L17.4847 9.04966L18.2517 9.82877C19.755 11.357 21.8413 12.226 24.0196 12.226H24.8172L23.7741 11.1473C22.2708 9.61901 20.1845 8.75 18.0062 8.75H16.9631C14.7848 8.75 12.6986 9.61901 11.1952 11.1473L10.1521 12.226H10.9498C13.1281 12.226 15.2143 11.357 16.7177 9.82877Z" fill="#9C98B2"/>
<path d="M48.7373 19.4946C48.7373 19.9125 48.7753 20.2202 48.8511 20.4178C48.927 20.6155 49.0291 20.7453 49.1575 20.8075C49.2917 20.8696 49.4959 20.926 49.7702 20.9768C50.1203 21.0333 50.4237 21.1124 50.6804 21.214L50.6629 21.6544H45.0263C45.0204 21.6093 45.0146 21.55 45.0088 21.4766C45.0029 21.4032 45 21.3156 45 21.214C45.1634 21.1462 45.3122 21.0954 45.4464 21.0615C45.5864 21.0277 45.7469 20.991 45.9278 20.9514C46.1904 20.9006 46.38 20.8413 46.4967 20.7736C46.6134 20.7058 46.7009 20.5731 46.7593 20.3755C46.8235 20.1722 46.8555 19.8504 46.8555 19.4099V12.8628C46.8555 12.4506 46.8205 12.1457 46.7505 11.9481C46.6805 11.7448 46.5813 11.6093 46.4529 11.5415C46.3246 11.4681 46.1262 11.3975 45.8578 11.3298C45.7352 11.3015 45.5981 11.2648 45.4464 11.2197C45.2947 11.1745 45.1488 11.1208 45.0088 11.0587L45.0263 10.6268H50.6542L50.6717 11.0672C50.4091 11.1801 50.1057 11.2705 49.7614 11.3382C49.4872 11.3947 49.2829 11.4596 49.1487 11.533C49.0203 11.6008 48.9182 11.7363 48.8424 11.9396C48.7724 12.1429 48.7373 12.4534 48.7373 12.8713V15.6239H54.9867V12.7866C54.9867 12.4026 54.9517 12.1174 54.8816 11.9311C54.8116 11.7448 54.7154 11.6177 54.5928 11.55C54.4703 11.4766 54.2806 11.406 54.0239 11.3382C53.7088 11.2592 53.4375 11.166 53.2099 11.0587L53.2274 10.6268H58.7153L58.7328 11.0672C58.476 11.1519 58.2281 11.2225 57.9888 11.2789C57.6679 11.3636 57.4374 11.4455 57.2974 11.5246C57.1573 11.6036 57.0494 11.7476 56.9735 11.9565C56.9035 12.1654 56.8685 12.4901 56.8685 12.9305V19.393C56.8685 19.8447 56.9006 20.175 56.9648 20.384C57.0289 20.5872 57.1252 20.7256 57.2536 20.799C57.3878 20.8667 57.6066 20.9317 57.91 20.9938C58.2485 21.0672 58.5227 21.1406 58.7328 21.214V21.6544H53.2274L53.2099 21.214C53.3558 21.135 53.4871 21.0785 53.6038 21.0446C53.7263 21.0107 53.8897 20.974 54.0939 20.9345C54.3273 20.895 54.4995 20.8442 54.6103 20.782C54.727 20.7199 54.8175 20.5957 54.8816 20.4094C54.9517 20.2174 54.9867 19.9209 54.9867 19.52V16.3608H48.7373V19.4946Z" fill="#9C98B2"/>
<path d="M64.1419 13.8114C64.9179 13.8114 65.624 13.9752 66.26 14.3027C66.9018 14.6245 67.4095 15.0875 67.7829 15.6917C68.1564 16.2902 68.3431 16.9876 68.3431 17.7837C68.3431 18.5799 68.1564 19.2857 67.7829 19.9012C67.4095 20.511 66.9106 20.9853 66.2862 21.3241C65.6619 21.6573 64.9792 21.8238 64.2381 21.8238C63.5029 21.8238 62.8144 21.6516 62.1725 21.3072C61.5307 20.9627 61.0172 20.4856 60.6321 19.8758C60.247 19.2603 60.0544 18.5658 60.0544 17.7922C60.0544 17.0186 60.2411 16.3298 60.6146 15.7256C60.988 15.1158 61.4869 14.6443 62.1113 14.3111C62.7415 13.978 63.4183 13.8114 64.1419 13.8114ZM64.3519 21.1632C65.093 21.1632 65.6561 20.9063 66.0412 20.3924C66.4263 19.8786 66.6188 19.2038 66.6188 18.3682C66.6188 17.6454 66.5138 16.9819 66.3038 16.3778C66.0995 15.7679 65.8049 15.2823 65.4197 14.921C65.0346 14.5596 64.5912 14.3789 64.0894 14.3789C63.6459 14.3789 63.252 14.4833 62.9078 14.6923C62.5693 14.9012 62.3009 15.223 62.1025 15.6578C61.9041 16.0926 61.8049 16.6375 61.8049 17.2925C61.8049 17.9362 61.91 18.5573 62.12 19.1558C62.3301 19.7487 62.6277 20.2315 63.0128 20.6042C63.3979 20.9768 63.8443 21.1632 64.3519 21.1632Z" fill="#9C98B2"/>
<path d="M72.5006 19.6725C72.5006 20.1468 72.5998 20.5138 72.7982 20.7736C73.0024 21.0277 73.3379 21.1801 73.8047 21.2309C73.8047 21.3156 73.8018 21.4003 73.796 21.485C73.7901 21.5697 73.7872 21.6262 73.7872 21.6544H69.4809L69.4722 21.2309C69.5247 21.1971 69.5918 21.166 69.6735 21.1378C69.761 21.1095 69.8485 21.0841 69.9361 21.0615C70.1928 20.9938 70.3941 20.9204 70.54 20.8413C70.6859 20.7566 70.7734 20.6324 70.8026 20.4687C70.8492 20.2259 70.8726 19.9774 70.8726 19.7233L70.8638 11.7532C70.7938 11.6403 70.6509 11.5302 70.435 11.4229C70.2249 11.31 70.0178 11.2168 69.8135 11.1434C69.6093 11.0644 69.478 11.0164 69.4197 10.9994L69.4372 10.703L71.8704 10.0593L72.5006 10V19.6725Z" fill="#9C98B2"/>
<path d="M76.8331 10C77.1132 10 77.3524 10.096 77.5508 10.288C77.7492 10.48 77.8484 10.7115 77.8484 10.9825C77.8484 11.2592 77.7492 11.4935 77.5508 11.6855C77.3524 11.8718 77.1132 11.965 76.8331 11.965C76.5472 11.965 76.305 11.8718 76.1066 11.6855C75.9141 11.4935 75.8178 11.2592 75.8178 10.9825C75.8178 10.7115 75.9141 10.48 76.1066 10.288C76.305 10.096 76.5472 10 76.8331 10ZM76.1329 15.4969C76.057 15.367 75.9141 15.2513 75.704 15.1496C75.4998 15.0424 75.2868 14.9548 75.0651 14.8871C74.8492 14.8137 74.7412 14.7798 74.7412 14.7854L74.7587 14.489L77.2182 13.913L77.7609 13.8792V19.7911C77.7609 19.9887 77.7813 20.175 77.8221 20.3501C77.8688 20.5251 78.003 20.703 78.2248 20.8837C78.4523 21.0644 78.8083 21.1801 79.2926 21.2309C79.2926 21.4173 79.2896 21.5584 79.2838 21.6544H74.715C74.7033 21.5528 74.6975 21.4116 74.6975 21.2309L74.9425 21.1632C75.1993 21.0954 75.4064 21.0277 75.564 20.9599C75.7215 20.8922 75.8557 20.7933 75.9666 20.6635C76.0774 20.5279 76.1329 20.3473 76.1329 20.1214V15.4969Z" fill="#9C98B2"/>
<path d="M86.6622 11.7024C86.5864 11.5895 86.4376 11.4766 86.2158 11.3636C85.9999 11.2507 85.787 11.1547 85.5769 11.0757C85.3727 10.9966 85.2385 10.9486 85.1743 10.9317L85.1918 10.6352L87.66 10.0593L88.2902 10V19.9689C88.2902 20.3077 88.439 20.5505 88.7366 20.6973C89.04 20.8442 89.3639 20.9176 89.7081 20.9176V21.3834L87.3712 21.7561H86.7848L86.706 20.4433C86.2917 20.9063 85.857 21.2535 85.4019 21.485C84.9467 21.7109 84.4595 21.8238 83.9402 21.8238C83.2808 21.8238 82.6769 21.6714 82.1284 21.3665C81.5857 21.0559 81.1569 20.6239 80.8418 20.0706C80.5267 19.5116 80.3691 18.8707 80.3691 18.1479C80.3691 17.3179 80.5442 16.5754 80.8943 15.9204C81.2502 15.2654 81.7374 14.7544 82.356 14.3874C82.9745 14.0203 83.6659 13.8368 84.4303 13.8368C84.7863 13.8368 85.1334 13.8905 85.4719 13.9977C85.8103 14.0994 86.2071 14.2547 86.6622 14.4636V11.7024ZM86.6622 17.3348C86.6622 16.7871 86.6126 16.3467 86.5134 16.0136C86.4142 15.6748 86.2129 15.3755 85.9095 15.1158C85.6761 14.9181 85.4252 14.7657 85.1568 14.6584C84.8884 14.5455 84.617 14.489 84.3428 14.489C83.8818 14.489 83.4734 14.633 83.1174 14.921C82.7615 15.2089 82.4843 15.5929 82.2859 16.0728C82.0934 16.5471 81.9971 17.061 81.9971 17.6143C81.9971 18.1508 82.0934 18.6646 82.2859 19.1558C82.4843 19.6414 82.779 20.0395 83.17 20.3501C83.5609 20.6606 84.0335 20.8159 84.5879 20.8159C85.0313 20.8159 85.4252 20.7228 85.7695 20.5364C86.1196 20.3444 86.4172 20.0903 86.6622 19.7741V17.3348Z" fill="#9C98B2"/>
<path d="M95.4848 16.4963C95.4848 16.0728 95.444 15.7143 95.3623 15.4207C95.2864 15.127 95.1289 14.8899 94.8896 14.7092C94.6562 14.5285 94.3207 14.4382 93.8831 14.4382C93.7314 14.4382 93.5447 14.4692 93.3229 14.5313C93.1012 14.5934 92.9057 14.6838 92.7365 14.8024C92.5731 14.9153 92.4914 15.048 92.4914 15.2005C92.4914 15.2626 92.5031 15.3247 92.5264 15.3868C92.5498 15.4433 92.5877 15.5167 92.6402 15.607C92.6928 15.6917 92.7307 15.7651 92.754 15.8272C92.7773 15.8893 92.789 15.9543 92.789 16.022C92.789 16.2479 92.7132 16.437 92.5615 16.5895C92.4156 16.7363 92.226 16.8097 91.9925 16.8097C91.7008 16.8097 91.4674 16.7053 91.2923 16.4963C91.1231 16.2874 91.0385 16.0361 91.0385 15.7425C91.0385 15.3021 91.2165 14.9379 91.5724 14.6499C91.9284 14.3619 92.3572 14.1502 92.859 14.0147C93.3667 13.8792 93.8393 13.8114 94.277 13.8114C95.0997 13.8114 95.7124 13.93 96.115 14.1671C96.5235 14.3986 96.7919 14.7403 96.9202 15.192C97.0544 15.6381 97.1216 16.2648 97.1216 17.0723L97.104 17.4958C97.0982 17.62 97.0895 17.8261 97.0778 18.1141C97.0719 18.402 97.069 18.6674 97.069 18.9102C97.069 20.1807 97.2062 20.8159 97.4804 20.8159C97.6788 20.8159 97.9355 20.6211 98.2506 20.2315L98.6182 20.6126C98.3615 21.0192 98.1077 21.3241 97.8568 21.5274C97.6059 21.725 97.2762 21.8238 96.8677 21.8238C96.4826 21.8238 96.1646 21.7081 95.9137 21.4766C95.6686 21.2394 95.5344 20.9345 95.5111 20.5618C95.1376 20.9571 94.7175 21.2676 94.2507 21.4935C93.7897 21.7137 93.2996 21.8238 92.7803 21.8238C92.4185 21.8238 92.083 21.7617 91.7737 21.6375C91.4703 21.5076 91.2252 21.3156 91.0385 21.0615C90.8576 20.8075 90.7672 20.5025 90.7672 20.1468C90.7672 19.6104 90.9802 19.1643 91.4061 18.8086C91.8321 18.4529 92.3222 18.1818 92.8765 17.9955C93.4309 17.8091 94.1078 17.6228 94.9072 17.4365C94.9772 17.4252 95.1697 17.38 95.4848 17.301V16.4963ZM95.4848 17.8007C95.3973 17.8289 95.2864 17.8628 95.1522 17.9023C94.6504 18.0604 94.2215 18.2129 93.8656 18.3597C93.5097 18.5008 93.1916 18.6928 92.9116 18.9356C92.6315 19.1784 92.4914 19.4636 92.4914 19.7911C92.4914 20.1242 92.5848 20.3868 92.7715 20.5788C92.9641 20.7708 93.2325 20.8667 93.5768 20.8667C93.921 20.8667 94.2536 20.7849 94.5746 20.6211C94.8955 20.4517 95.1989 20.2315 95.4848 19.9605V17.8007Z" fill="#9C98B2"/>
<path d="M100.229 15.6239C100.089 15.319 99.9545 15.0903 99.8261 14.9379C99.6977 14.7854 99.5781 14.6866 99.4672 14.6414C99.3622 14.5906 99.2368 14.5539 99.0909 14.5313C99.0033 14.52 98.9217 14.5031 98.8458 14.4805V14.0401H102.951C102.962 14.0909 102.977 14.1841 102.995 14.3196C103.018 14.4495 103.018 14.5172 102.995 14.5229C102.609 14.5906 102.326 14.6697 102.146 14.76C101.965 14.8447 101.874 14.9774 101.874 15.1581C101.874 15.2767 101.912 15.4517 101.988 15.6832L103.721 19.8588L105.218 15.9373C105.305 15.7171 105.349 15.5251 105.349 15.3614C105.349 15.1186 105.259 14.9351 105.078 14.8108C104.897 14.681 104.608 14.5822 104.211 14.5144C104.205 14.4805 104.202 14.4156 104.202 14.3196C104.202 14.2518 104.202 14.1925 104.202 14.1417C104.208 14.0909 104.211 14.057 104.211 14.0401H107.423L107.432 14.4721C107.339 14.5455 107.21 14.6104 107.047 14.6669C106.895 14.729 106.767 14.7911 106.662 14.8532C106.563 14.9097 106.463 15.0028 106.364 15.1327C106.271 15.2626 106.192 15.4404 106.128 15.6663L103.021 23.0689C102.764 23.69 102.458 24.1671 102.102 24.5003C101.752 24.8334 101.305 25 100.763 25C100.372 25 100.048 24.9097 99.7911 24.729C99.5402 24.5539 99.4147 24.3168 99.4147 24.0175C99.4147 23.7973 99.4935 23.611 99.651 23.4585C99.8144 23.306 100.01 23.2298 100.237 23.2298C100.442 23.2298 100.593 23.2637 100.693 23.3315C100.798 23.3992 100.9 23.5008 100.999 23.6364C101.075 23.738 101.145 23.8142 101.209 23.865C101.279 23.9215 101.372 23.9497 101.489 23.9497C101.67 23.9497 101.83 23.8707 101.97 23.7126C102.111 23.5545 102.242 23.3399 102.364 23.0689C102.493 22.8035 102.671 22.3857 102.898 21.8154L102.96 21.6544L100.229 15.6239Z" fill="#9C98B2"/>
<path d="M114.285 12.9898C114.285 12.5438 114.25 12.2163 114.18 12.0073C114.11 11.7928 114.008 11.646 113.874 11.5669C113.74 11.4822 113.521 11.4003 113.218 11.3213C113.177 11.31 113.072 11.2818 112.902 11.2366C112.739 11.1858 112.57 11.1265 112.395 11.0587L112.412 10.6268H117.384C118.329 10.6268 119.161 10.6804 119.878 10.7877C120.602 10.8893 121.232 11.1434 121.769 11.55C122.306 11.9565 122.574 12.572 122.574 13.3964C122.574 14.7798 121.521 15.6437 119.414 15.9881C120.021 16.0164 120.608 16.1293 121.174 16.3269C121.745 16.5189 122.218 16.8154 122.592 17.2163C122.965 17.6115 123.152 18.1056 123.152 18.6985C123.152 19.4043 122.927 19.9802 122.478 20.4263C122.028 20.8667 121.468 21.1829 120.797 21.3749C120.126 21.5613 119.432 21.6544 118.714 21.6544H112.412L112.395 21.214L112.71 21.1293C113.048 21.0446 113.323 20.9599 113.533 20.8752C113.743 20.7849 113.921 20.655 114.067 20.4856C114.212 20.3106 114.285 20.0762 114.285 19.7826V12.9898ZM116.167 15.4715C116.249 15.5449 116.357 15.607 116.491 15.6578C116.625 15.703 116.751 15.7256 116.867 15.7256H118.031C119.899 15.7256 120.832 15.0395 120.832 13.6674C120.832 12.939 120.619 12.3998 120.193 12.0497C119.773 11.694 119.274 11.4737 118.697 11.389C118.119 11.3044 117.41 11.262 116.57 11.262H116.167V15.4715ZM116.167 19.3337C116.167 19.729 116.237 20.0932 116.377 20.4263C116.523 20.7538 116.774 20.9176 117.13 20.9176H118.548C118.997 20.9176 119.403 20.8357 119.764 20.6719C120.132 20.5025 120.424 20.2597 120.64 19.9435C120.856 19.6217 120.964 19.2434 120.964 18.8086C120.964 18.0519 120.73 17.4929 120.263 17.1316C119.797 16.7645 119.251 16.5387 118.627 16.454C118.008 16.3636 117.261 16.3185 116.386 16.3185C116.287 16.4032 116.225 16.5048 116.202 16.6234C116.179 16.7363 116.167 16.8831 116.167 17.0638V19.3337Z" fill="#9C98B2"/>
<path d="M126.198 17.1993C126.192 17.2558 126.189 17.3377 126.189 17.4449C126.189 18.1564 126.32 18.7521 126.583 19.2321C126.851 19.7064 127.207 20.0593 127.651 20.2908C128.1 20.5167 128.602 20.6296 129.156 20.6296C129.891 20.6296 130.6 20.4263 131.283 20.0198L131.537 20.2569C131.397 20.5844 131.16 20.8667 130.828 21.1039C130.501 21.3411 130.127 21.5217 129.707 21.646C129.293 21.7645 128.89 21.8238 128.5 21.8238C127.764 21.8238 127.102 21.6573 126.513 21.3241C125.929 20.991 125.471 20.5251 125.139 19.9266C124.812 19.3281 124.648 18.642 124.648 17.8684C124.648 17.0836 124.826 16.3834 125.182 15.7679C125.538 15.1468 126.011 14.6669 126.6 14.3281C127.195 13.9836 127.831 13.8114 128.508 13.8114C129.063 13.8114 129.561 13.9215 130.005 14.1417C130.454 14.3563 130.819 14.6612 131.099 15.0565C131.379 15.4461 131.557 15.895 131.633 16.4032C131.697 16.6629 131.729 16.9029 131.729 17.1231V17.1993H126.198ZM129.349 16.6573C129.605 16.646 129.821 16.6008 129.996 16.5217C129.955 15.8498 129.792 15.3247 129.506 14.9464C129.226 14.568 128.826 14.3789 128.307 14.3789C127.928 14.3789 127.589 14.489 127.292 14.7092C127 14.9294 126.764 15.223 126.583 15.5901C126.402 15.9514 126.285 16.3495 126.233 16.7843L129.349 16.6573Z" fill="#9C98B2"/>
<path d="M137.882 16.4963C137.882 16.0728 137.841 15.7143 137.76 15.4207C137.684 15.127 137.526 14.8899 137.287 14.7092C137.054 14.5285 136.718 14.4382 136.281 14.4382C136.129 14.4382 135.942 14.4692 135.72 14.5313C135.499 14.5934 135.303 14.6838 135.134 14.8024C134.971 14.9153 134.889 15.048 134.889 15.2005C134.889 15.2626 134.901 15.3247 134.924 15.3868C134.947 15.4433 134.985 15.5167 135.038 15.607C135.09 15.6917 135.128 15.7651 135.151 15.8272C135.175 15.8893 135.186 15.9543 135.186 16.022C135.186 16.2479 135.111 16.437 134.959 16.5895C134.813 16.7363 134.623 16.8097 134.39 16.8097C134.098 16.8097 133.865 16.7053 133.69 16.4963C133.521 16.2874 133.436 16.0361 133.436 15.7425C133.436 15.3021 133.614 14.9379 133.97 14.6499C134.326 14.3619 134.755 14.1502 135.256 14.0147C135.764 13.8792 136.237 13.8114 136.674 13.8114C137.497 13.8114 138.11 13.93 138.512 14.1671C138.921 14.3986 139.189 14.7403 139.318 15.192C139.452 15.6381 139.519 16.2648 139.519 17.0723L139.501 17.4958C139.496 17.62 139.487 17.8261 139.475 18.1141C139.469 18.402 139.466 18.6674 139.466 18.9102C139.466 20.1807 139.604 20.8159 139.878 20.8159C140.076 20.8159 140.333 20.6211 140.648 20.2315L141.016 20.6126C140.759 21.0192 140.505 21.3241 140.254 21.5274C140.003 21.725 139.674 21.8238 139.265 21.8238C138.88 21.8238 138.562 21.7081 138.311 21.4766C138.066 21.2394 137.932 20.9345 137.909 20.5618C137.535 20.9571 137.115 21.2676 136.648 21.4935C136.187 21.7137 135.697 21.8238 135.178 21.8238C134.816 21.8238 134.48 21.7617 134.171 21.6375C133.868 21.5076 133.623 21.3156 133.436 21.0615C133.255 20.8075 133.165 20.5025 133.165 20.1468C133.165 19.6104 133.378 19.1643 133.804 18.8086C134.23 18.4529 134.72 18.1818 135.274 17.9955C135.828 17.8091 136.505 17.6228 137.305 17.4365C137.375 17.4252 137.567 17.38 137.882 17.301V16.4963ZM137.882 17.8007C137.795 17.8289 137.684 17.8628 137.55 17.9023C137.048 18.0604 136.619 18.2129 136.263 18.3597C135.907 18.5008 135.589 18.6928 135.309 18.9356C135.029 19.1784 134.889 19.4636 134.889 19.7911C134.889 20.1242 134.982 20.3868 135.169 20.5788C135.362 20.7708 135.63 20.8667 135.974 20.8667C136.318 20.8667 136.651 20.7849 136.972 20.6211C137.293 20.4517 137.596 20.2315 137.882 19.9605V17.8007Z" fill="#9C98B2"/>
<path d="M148.937 20.0621C148.814 20.4404 148.595 20.7623 148.28 21.0277C147.965 21.2931 147.595 21.4935 147.169 21.629C146.743 21.7589 146.299 21.8238 145.838 21.8238C145.033 21.8238 144.336 21.6431 143.746 21.2818C143.163 20.9147 142.72 20.4291 142.416 19.825C142.113 19.2208 141.961 18.5658 141.961 17.86C141.961 17.1146 142.145 16.4342 142.512 15.8187C142.88 15.1976 143.396 14.7092 144.062 14.3535C144.727 13.9921 145.482 13.8114 146.328 13.8114C146.819 13.8114 147.268 13.882 147.676 14.0232C148.085 14.1587 148.406 14.3535 148.639 14.6076C148.878 14.8617 148.998 15.1553 148.998 15.4884C148.998 15.7425 148.913 15.9289 148.744 16.0474C148.575 16.1604 148.394 16.2168 148.202 16.2168C148.021 16.2168 147.881 16.1858 147.781 16.1237C147.682 16.0559 147.609 15.9769 147.563 15.8865C147.522 15.7905 147.481 15.6578 147.44 15.4884C147.393 15.2739 147.335 15.0988 147.265 14.9633C147.201 14.8278 147.078 14.7092 146.897 14.6076C146.717 14.5059 146.457 14.4495 146.118 14.4382C145.669 14.4212 145.249 14.5285 144.858 14.76C144.467 14.9859 144.152 15.3247 143.913 15.7764C143.679 16.2281 143.563 16.7702 143.563 17.4026C143.563 17.9898 143.671 18.5291 143.887 19.0203C144.102 19.5116 144.418 19.904 144.832 20.1976C145.252 20.4912 145.754 20.6381 146.337 20.6381C146.845 20.6381 147.268 20.5788 147.606 20.4602C147.945 20.3416 148.295 20.144 148.657 19.8673L148.937 20.0621Z" fill="#9C98B2"/>
<path d="M158.67 19.7826C158.67 20.2174 158.783 20.559 159.011 20.8075C159.244 21.0503 159.574 21.1914 160 21.2309C160 21.3156 159.997 21.4003 159.991 21.485C159.985 21.5641 159.982 21.6206 159.982 21.6544H155.676C155.676 21.6206 155.673 21.5641 155.667 21.485C155.662 21.4003 155.659 21.3156 155.659 21.2309C155.758 21.1858 155.95 21.1208 156.236 21.0361C156.458 20.9684 156.619 20.9063 156.718 20.8498C156.823 20.7877 156.902 20.6804 156.954 20.5279C157.012 20.3755 157.042 20.1468 157.042 19.8419V16.7674C157.042 16.1462 156.905 15.6522 156.63 15.2852C156.362 14.9125 155.939 14.7261 155.361 14.7261C154.947 14.7261 154.544 14.8334 154.153 15.048C153.768 15.2569 153.412 15.5279 153.085 15.8611V19.681C153.085 20.1892 153.205 20.5618 153.444 20.799C153.684 21.0361 154.075 21.1801 154.617 21.2309L154.608 21.6544H149.943C149.943 21.6206 149.94 21.5641 149.935 21.485C149.929 21.4003 149.926 21.3156 149.926 21.2309C150.947 21.1519 151.457 20.6352 151.457 19.681V11.7956C151.399 11.7109 151.271 11.6093 151.072 11.4907C150.874 11.3665 150.664 11.2564 150.442 11.1604C150.226 11.0644 150.066 11.0107 149.961 10.9994V10.703L152.464 10.0593L153.085 10V15.1496C153.546 14.7036 153.999 14.3704 154.442 14.1502C154.886 13.9243 155.399 13.8114 155.983 13.8114C156.794 13.8114 157.444 14.0627 157.934 14.5652C158.425 15.0621 158.67 15.8216 158.67 16.8436V19.7826Z" fill="#9C98B2"/>
</svg>
