<svg width="110" height="37" viewBox="0 0 110 37" fill="none" xmlns="http://www.w3.org/2000/svg">
<path d="M14.468 3.87685V18.5L11.3311 16.5956C5.76159 13.1949 2.30463 6.86949 2.30463 0H0V16.7316C0 22.1728 2.94481 27.2059 7.6181 29.5864L14.532 33.1232V18.5L17.6689 20.4044C23.2384 23.8052 26.6954 30.1305 26.6954 37H29V20.2684C29 14.8272 26.0552 9.79412 21.3819 7.4136L14.468 3.87685Z" fill="#9C98B2"/>
<path d="M52.9054 23.1135C52.9054 24.5864 52.3803 25.7647 51.3301 26.6484C50.2799 27.5321 49.0705 27.974 47.7021 27.974C46.3336 27.974 44.7742 27.6708 43.0239 27.0643C43.008 26.7351 43 26.2066 43 25.4788C43 24.751 43.0716 23.7027 43.2148 22.3338C43.6444 22.3338 44.0502 22.3771 44.4321 22.4637C44.4321 22.5157 44.4321 22.5677 44.4321 22.6197C44.4321 25.1496 45.5141 26.4145 47.6782 26.4145C48.4261 26.4145 49.0307 26.2152 49.4922 25.8167C49.9537 25.4008 50.1844 24.8377 50.1844 24.1272C50.1844 23.4168 49.9377 22.793 49.4445 22.2558C48.9671 21.7187 48.3783 21.2681 47.6782 20.9042C46.994 20.523 46.3018 20.1245 45.6017 19.7086C44.9015 19.2754 44.3048 18.6863 43.8115 17.9412C43.3342 17.1961 43.0955 16.3124 43.0955 15.29C43.0955 13.9038 43.5649 12.8208 44.5037 12.041C45.4425 11.244 46.5962 10.8454 47.9646 10.8454C49.3331 10.8454 50.7493 11.0967 52.2132 11.5992C52.2132 12.8121 52.1098 14.1464 51.9029 15.6019C51.5687 15.6019 51.2425 15.5759 50.9243 15.5239C50.6538 13.4099 49.6991 12.3529 48.0601 12.3529C47.344 12.3529 46.7632 12.5435 46.3177 12.9248C45.8722 13.306 45.6494 13.8345 45.6494 14.5103C45.6494 15.1687 45.896 15.7579 46.3893 16.2777C46.8985 16.7975 47.5032 17.2394 48.2033 17.6033C48.9194 17.9672 49.6275 18.357 50.3276 18.7729C51.0436 19.1715 51.6483 19.7433 52.1416 20.4884C52.6508 21.2161 52.9054 22.0912 52.9054 23.1135Z" fill="#9C98B2"/>
<path d="M59.0045 27.974C58.0975 27.974 57.3655 27.6794 56.8086 27.0903C56.2517 26.4838 55.9732 25.5914 55.9732 24.4131V17.4733C55.5277 17.404 55.0185 17.3694 54.4456 17.3694C54.4456 17.0055 54.4615 16.6676 54.4934 16.3557C54.8912 16.1824 55.3765 16.0178 55.9493 15.8618L58.3123 12.093L58.909 12.275V15.8358C60.0229 15.8012 61.0333 15.7232 61.9403 15.6019C61.9403 16.2604 61.8687 16.8495 61.7255 17.3694H58.909L58.9329 24.2572C58.9329 25.2795 59.2989 25.7907 60.0308 25.7907C60.6355 25.7907 61.2481 25.5308 61.8687 25.0109L62.3699 25.7127C61.3993 27.2202 60.2775 27.974 59.0045 27.974Z" fill="#9C98B2"/>
<path d="M65.092 25.0109V17.7332C64.8374 17.6986 64.5669 17.6813 64.2805 17.6813C64.01 17.6813 63.7395 17.6899 63.469 17.7073C63.5008 17.1874 63.5565 16.8062 63.6361 16.5636C64.9568 16.0438 66.3332 15.7059 67.7653 15.5499C67.9244 16.6243 68.0199 17.8112 68.0517 19.1108C68.4495 18.0192 69.0144 17.1354 69.7464 16.4596C70.4942 15.7665 71.3217 15.42 72.2287 15.42C72.3082 15.7319 72.348 16.1304 72.348 16.6156C72.348 17.0834 72.2685 17.6899 72.1093 18.435C69.6907 18.435 68.3381 19.44 68.0517 21.4501V25.9726C68.72 26.2499 69.46 26.4145 70.2715 26.4665C70.2715 26.5531 70.2715 26.7004 70.2715 26.9083C70.2715 27.099 70.2397 27.3502 70.176 27.6621H63.469C63.4531 27.5408 63.4451 27.3762 63.4451 27.1683C63.4451 26.943 63.4849 26.7091 63.5645 26.4665C64.0896 26.3798 64.4715 26.2412 64.7101 26.0506C64.9647 25.8427 65.092 25.4961 65.092 25.0109Z" fill="#9C98B2"/>
<path d="M81.0738 22.1259C81.0738 18.643 80.2066 16.9015 78.4721 16.9015C76.865 16.9015 76.0614 18.3657 76.0614 21.2941C76.0614 21.4327 76.0614 21.5714 76.0614 21.71C76.1887 24.8637 77.0718 26.4405 78.7108 26.4405C80.2861 26.4405 81.0738 25.0023 81.0738 22.1259ZM78.5915 15.42C80.2782 15.42 81.6387 15.9658 82.673 17.0575C83.7073 18.1491 84.2244 19.6913 84.2244 21.684C84.2244 23.6767 83.6993 25.2275 82.6491 26.3365C81.5989 27.4282 80.2304 27.974 78.5437 27.974C76.857 27.974 75.4965 27.4282 74.4622 26.3365C73.4439 25.2449 72.9347 23.7027 72.9347 21.71C72.9347 19.7173 73.4598 18.1751 74.51 17.0834C75.5602 15.9745 76.9207 15.42 78.5915 15.42Z" fill="#9C98B2"/>
<path d="M98.8356 26.4665C98.8356 26.5185 98.8356 26.6398 98.8356 26.8304C98.8356 27.0036 98.7958 27.2809 98.7162 27.6621H94.8257L91.7705 22.8276C91.6432 22.6197 91.5239 22.4724 91.4125 22.3858L90.1952 23.6854V26.1286C90.593 26.3192 91.0704 26.4318 91.6273 26.4665C91.6273 26.5358 91.6273 26.6571 91.6273 26.8304C91.6273 27.0036 91.6035 27.2809 91.5557 27.6621H85.6125C85.5966 27.5408 85.5886 27.3762 85.5886 27.1683C85.5886 26.943 85.6284 26.7091 85.708 26.4665C86.2331 26.3798 86.615 26.2412 86.8537 26.0506C87.1082 25.8427 87.2355 25.5048 87.2355 25.0369V11.1573C87.0923 11.14 86.8855 11.1313 86.615 11.1313C86.3445 11.1313 86.0103 11.14 85.6125 11.1573C85.6443 10.6202 85.7 10.2303 85.7796 9.98769C87.1321 9.45053 88.604 9.1213 90.1952 9V21.736L94.3245 17.2914C93.672 17.1528 93.1151 16.9622 92.6537 16.7196C92.6537 16.321 92.7014 15.9918 92.7969 15.7319H98.1195C98.1195 16.2864 98.0957 16.6849 98.0479 16.9275C97.0295 16.9275 96.1623 17.3174 95.4463 18.0971L93.2981 20.3844C93.68 20.5923 94.0778 21.0255 94.4915 21.684L96.4965 24.881C96.8784 25.4875 97.2205 25.8947 97.5228 26.1026C97.8411 26.3105 98.2786 26.4318 98.8356 26.4665Z" fill="#9C98B2"/>
<path d="M105.417 17.0055C104.892 17.0055 104.407 17.2567 103.961 17.7592C103.532 18.2617 103.245 19.0502 103.102 20.1245L105.322 19.9425L107.016 19.8906C106.969 17.9672 106.436 17.0055 105.417 17.0055ZM103.007 21.2941V21.554C103.007 24.4998 104.033 25.9726 106.086 25.9726C107.168 25.9726 108.305 25.6607 109.499 25.0369L109.905 25.7907C108.6 27.2636 107.04 28 105.226 28C104.399 28 103.587 27.8007 102.792 27.4022C102.012 26.9863 101.328 26.3019 100.739 25.3488C100.166 24.3958 99.8798 23.2695 99.8798 21.9699C99.8798 19.9599 100.453 18.3657 101.598 17.1874C102.76 16.0091 104.12 15.42 105.68 15.42C106.889 15.42 107.908 15.8272 108.735 16.6416C109.578 17.456 110 18.7296 110 20.4624C109.905 20.7743 109.777 21.0515 109.618 21.2941H103.007Z" fill="#9C98B2"/>
</svg>
