<svg width="100" height="37" viewBox="0 0 100 37" fill="none" xmlns="http://www.w3.org/2000/svg">
<path d="M22.6316 28.6815C19.5614 27.555 16.4035 27.3817 13.5088 28.1616C11.4912 28.6815 9.56143 29.7213 7.80704 31.0211L6.57895 32.0609L6.22808 32.4075L7.01754 33.1007C7.10526 33.1007 7.10527 33.1874 7.19299 33.274C7.36843 33.4473 7.54388 33.534 7.80704 33.7073L8.33333 34.0539L8.85965 33.6206C8.94737 33.534 9.12281 33.3607 9.29825 33.274C10.8772 31.9742 12.6316 31.1077 14.4737 30.6745C16.8421 30.0679 19.386 30.1546 21.9298 31.1077C24.0351 31.8876 28.3333 32.8408 33.5088 30.6745L33.6842 30.5878L33.9474 30.3279C33.9474 30.2412 34.0351 30.2412 34.1228 30.1546C34.5614 29.6347 35 29.1148 35.3509 28.5082L37.1053 25.822L34.2983 27.3817C30.1754 29.6346 26.4035 30.0679 22.6316 28.6815Z" fill="#9C98B2"/>
<path d="M10.614 19.3232C12.9825 18.7166 15.5263 18.8033 18.0702 19.7564C20.8772 20.7962 28.0702 22.2693 36.1404 15.0773L37.8947 13.3443L37.7193 12.911C37.6316 12.5644 37.4561 12.1312 37.2807 11.6979L36.8421 10.4848L35.9649 11.3513C35.8772 11.5246 35.7018 11.6112 35.5263 11.7845C31.6667 15.6838 25.7018 19.6698 18.8596 17.2436C15.7895 16.1171 12.6316 15.9438 9.73685 16.7236C6.92983 17.5035 4.47368 18.9766 2.19298 21.0562V20.9695L0.877193 22.356C0.877193 22.4426 0.78949 22.4426 0.70177 22.5293L0.438596 22.7892L0.526321 23.1358C0.61404 23.5691 0.789474 24.0023 0.877193 24.4356L1.40351 25.822L2.28071 24.6956C2.36843 24.5223 2.54386 24.4356 2.63158 24.2623C4.47368 22.6159 7.01755 20.2763 10.614 19.3232Z" fill="#9C98B2"/>
<path d="M2.10528 17.7635C4.12283 15.6838 6.40351 14.3841 8.85965 13.6909C11.2281 13.0843 13.7719 13.171 16.3158 14.1241C24.2105 16.9836 31.0526 12.3044 34.0351 9.79156L35.1754 8.66511L35.614 8.31848L35.2632 7.7986C35 7.53864 34.8246 7.19203 34.5614 6.84543L34.0351 6.15221L33.4211 6.75877C33.3333 6.84542 33.1579 7.01872 33.0702 7.10537C29.386 10.5714 23.6842 14.1241 17.193 11.6979C14.1228 10.5714 10.9649 10.3981 8.07019 11.178C6.22808 11.6979 4.47369 12.5644 2.7193 13.6909L0.877193 15.1639C0.701754 15.3372 0.614035 15.4239 0.438596 15.5972L0.263174 15.7705V16.0305C0.175455 16.637 0.175444 17.2436 0.0877246 17.7635L0 19.9297L1.49124 18.37C1.66668 18.1967 1.84213 17.9368 2.10528 17.7635Z" fill="#9C98B2"/>
<path d="M25.1754 34.5738C24.9123 34.4871 24.7369 34.4005 24.4737 34.3138C21.4035 33.1873 18.2456 33.0141 15.3509 33.7939C14.7368 33.9672 14.1228 34.1405 13.5088 34.4005L11.4035 35.3536L10.8772 35.6136L12.6316 36.2201C13.1579 36.3934 13.6842 36.5668 14.2105 36.7401L14.4737 36.8267L14.7369 36.7401C15 36.6534 15.2632 36.4801 15.5263 36.4801C15.7018 36.4801 15.8772 36.3935 16.0526 36.3068C18.1579 35.7869 20.4386 35.7869 22.8947 36.5667C23.1579 36.6534 23.3334 36.7401 23.5965 36.8267L24.0351 37L24.2983 36.9133C24.9123 36.74 25.6141 36.5668 26.1404 36.3068L28.5965 35.4403L26.0526 34.8337C25.7895 34.7471 25.4386 34.6604 25.1754 34.5738Z" fill="#9C98B2"/>
<path d="M38.5965 16.637L37.2807 17.9368C37.1053 18.1101 36.9298 18.2834 36.7544 18.4567C33.1579 21.8361 27.3684 25.4754 20.8772 23.0492C17.807 21.9227 14.6491 21.7494 11.7544 22.5293C9.03511 23.3091 6.57895 24.6956 4.38596 26.7752L3.24562 27.9883L2.89475 28.4215L3.24562 28.9415C3.50878 29.2881 3.68423 29.548 3.85967 29.8946L4.38596 30.6745L5.00001 29.8946C5.08773 29.808 5.26316 29.6346 5.35088 29.548C7.45615 27.2951 9.73685 25.9087 12.3684 25.2154C14.7368 24.6089 17.2807 24.6955 19.8246 25.6487C22.0175 26.4286 24.2983 26.6885 26.579 26.4286C30.614 25.9953 34.6491 23.7424 37.6316 21.2295C37.807 21.0562 37.9825 20.9696 38.1579 20.7963L38.4211 20.5363V20.2763C38.4211 19.7564 38.5088 19.1499 38.5088 18.63L38.5965 16.637Z" fill="#9C98B2"/>
<path d="M5.26316 8.66511C5.78947 8.40516 6.40353 8.23184 6.92985 8.05854C9.29827 7.45198 11.8421 7.53863 14.386 8.4918C16.0527 9.09835 17.7193 9.35831 19.5614 9.35831C23.2456 9.35831 26.9298 8.05855 30.3509 5.54566L32.1053 4.15924L31.3158 3.55267C31.0526 3.29272 30.7018 3.03278 30.3509 2.85948L29.8246 2.51288L29.386 2.85948C29.2105 2.94613 29.1228 3.11942 28.9474 3.20607C24.2982 6.67212 19.6491 7.62529 15.2632 5.97892C12.1053 4.85246 8.94737 4.5925 5.78948 5.54566C5.52632 5.63232 5.26316 5.71896 4.91229 5.80561L4.73686 5.89226L4.47369 6.15221C4.47369 6.23886 4.38599 6.23887 4.29827 6.32552C3.94739 6.84542 3.50878 7.27869 3.1579 7.7986L1.49124 10.3115L4.21054 8.92505C4.64914 8.92505 5 8.75176 5.26316 8.66511Z" fill="#9C98B2"/>
<path d="M12.4562 2.77282L12.7193 2.85948C13.8596 3.29273 15.6141 3.72599 17.807 3.72599C20.0877 3.72599 22.2807 3.20607 24.4737 2.33956L27.193 1.0398L25.3509 0.433255C24.8246 0.259953 24.2982 0.0866511 23.6842 0H23.4211L23.1579 0.0866299C22.8948 0.173281 22.6316 0.346604 22.3684 0.433255C19.7368 1.38642 17.1053 1.55972 14.5614 0.866511C14.2983 0.77986 14.0351 0.693193 13.7719 0.606542L13.5088 0.519885L13.2456 0.606542C12.7193 0.779844 12.193 0.953157 11.6667 1.21311L9.64912 2.07962L11.7544 2.68616C11.9298 2.59951 12.193 2.68617 12.4562 2.77282Z" fill="#9C98B2"/>
<path d="M47.3684 26.5453V9.84815H58.7711V12.8025H51.1874V16.4954H57.4981V19.4497H51.1874V26.5453H47.3684Z" fill="#9C98B2"/>
<path d="M65.3298 9.53162V26.5453H61.6463V11.4044C62.3686 11.0703 63.4429 10.5252 64.8694 9.76902L65.1402 9.63713L65.3298 9.53162Z" fill="#9C98B2"/>
<path d="M74.1499 14.2532C76.1903 14.2532 77.7793 14.9479 78.9168 16.3371C79.8558 17.4801 80.3253 18.8957 80.3253 20.5839C80.3253 22.5359 79.612 24.1273 78.1856 25.3583C77.03 26.3607 75.6847 26.8618 74.1499 26.8618C72.3804 26.8618 70.8907 26.2112 69.681 24.9099C68.5614 23.7317 68.0017 22.2897 68.0017 20.5839C68.0017 18.632 68.6066 17.0669 69.8164 15.8887C70.9359 14.7984 72.3804 14.2532 74.1499 14.2532ZM71.7665 20.5839C71.7665 22.9931 72.57 24.1977 74.177 24.1977C75.766 24.1977 76.5605 22.9931 76.5605 20.5839C76.5605 18.0516 75.757 16.7855 74.1499 16.7855C72.561 16.7855 71.7665 18.0516 71.7665 20.5839Z" fill="#9C98B2"/>
<path d="M88.7598 26.5453H85.5638L81.3115 14.5698H84.995L87.1077 22.1666L88.7327 14.5698H92.4434C92.6961 15.8535 93.1024 17.8582 93.6622 20.5839L93.933 21.7445L94.0143 22.1666L96.2081 14.5698H100L99.4041 16.1524L99.0249 17.2076C97.4901 21.3401 96.3255 24.4527 95.531 26.5453H92.3079C92.1454 25.9122 91.9107 24.9363 91.6037 23.6174C91.1704 21.8413 90.8092 20.4081 90.5203 19.3178C90.3037 20.1443 90.0328 21.2697 89.7078 22.6941C89.2744 24.4527 88.9585 25.7364 88.7598 26.5453Z" fill="#9C98B2"/>
</svg>
