<svg width="96" height="33" viewBox="0 0 96 33" fill="none" xmlns="http://www.w3.org/2000/svg">
<path fill-rule="evenodd" clip-rule="evenodd" d="M95.9998 0H0V32.6315H95.9998V0ZM1.67231 30.9668V1.66505H94.3271V30.9668H1.67231Z" fill="#9C98B2"/>
<path fill-rule="evenodd" clip-rule="evenodd" d="M10.7031 23.2159V8.99123H12.6699L15.299 16.5231H15.3392L17.9482 8.99123H19.9351V23.2159H17.888V14.5652H17.8479L15.8209 20.6787H14.7973L12.7903 14.5652H12.7502V23.2159H10.7031ZM24.7322 23.215V8.99026H26.7793V23.215H24.7322ZM31.4951 23.215V8.99026H33.4619L36.5526 17.561H36.5928V8.99026H38.6399V23.215H36.7132L33.5823 14.6642H33.5422V23.215H31.4951ZM43.3561 23.215V8.99026H45.4032V23.215H43.3561ZM50.2005 23.215V8.99026H52.1673L54.7964 16.5222H54.8365L57.4456 8.99026H59.4325V23.215H57.3854V14.5643H57.3453L55.3182 20.6777H54.2947L52.2877 14.5643H52.2476V23.215H50.2005ZM70.7922 8.99026V20.0184C70.7922 20.4846 70.7085 20.9141 70.5413 21.307C70.374 21.6999 70.1366 22.0495 69.8288 22.3559C69.5211 22.6622 69.1665 22.902 68.7651 23.0751C68.3637 23.2482 67.9356 23.3348 67.4807 23.3348C67.0258 23.3348 66.601 23.2482 66.2062 23.0751C65.8115 22.902 65.4603 22.6622 65.1526 22.3559C64.8448 22.0495 64.604 21.6999 64.4301 21.307C64.2561 20.9141 64.1692 20.4846 64.1692 20.0184V8.99026H66.2163V19.8186C66.2163 20.3247 66.3367 20.6977 66.5775 20.9374C66.8184 21.1771 67.1194 21.297 67.4807 21.297C67.8419 21.297 68.143 21.1771 68.3838 20.9374C68.6246 20.6977 68.7451 20.3247 68.7451 19.8186V8.99026H70.7922ZM75.5283 23.215V8.99026H77.4951L80.1242 16.5222H80.1644L82.7734 8.99026H84.7603V23.215H82.7132V14.5643H82.6731L80.646 20.6777H79.6225L77.6155 14.5643H77.5754V23.215H75.5283Z" fill="#9C98B2"/>
</svg>
