<svg width="100" height="34" viewBox="0 0 100 34" fill="none" xmlns="http://www.w3.org/2000/svg">
<path d="M18.875 15.2618C18.875 15.4314 18.875 15.601 18.875 15.8554C18.875 19.9252 15.5591 23.3167 11.393 23.3167C8.33219 23.3167 5.61147 21.4514 4.50618 18.7382C4.50618 18.5686 4.50618 18.4838 4.50618 18.3142C4.50618 14.2444 7.82204 10.8529 11.9881 10.8529C15.049 10.8529 17.6847 12.6334 18.875 15.2618L18.7899 0C8.4172 0 0 8.39401 0 18.7382H4.33612V34C14.7089 34 23.1261 25.606 23.1261 15.2618H18.875Z" fill="#9C98B2"/>
<path d="M50.875 7.32308V8.23846L49.765 8.26462L43.5804 24.6369L40.1445 25.0815L34.4092 8.26462L33.2992 8.23846V7.32308H41.3339V8.23846L39.7745 8.26462L43.2897 21.7338L46.4348 8.26462L44.8755 8.23846V7.32308H50.875Z" fill="#9C98B2"/>
<path d="M51.4135 7.55846L54.7965 6.8V9.78154L51.4135 10.2785V7.55846ZM55.0608 24.0092L56.0387 24.0877V24.8462H50.3563V24.0877L51.3342 24.0092L51.2549 14.6985L50.2506 14.9077L49.9863 14.1492L54.7701 12.6846L55.1401 13.3123L55.0608 24.0092Z" fill="#9C98B2"/>
<path d="M61.0204 15.0385C61.0204 15.5092 61.2054 15.9364 61.5754 16.32C61.963 16.7036 62.5445 17.1569 63.3197 17.68C64.2712 18.3251 64.9936 18.9092 65.487 19.4323C65.9803 19.9554 66.227 20.6005 66.227 21.3677C66.227 22.0477 66.0244 22.6841 65.6191 23.2769C65.2139 23.8697 64.6412 24.3492 63.9012 24.7154C63.1612 25.0641 62.3154 25.2385 61.3639 25.2385C60.4477 25.2385 59.5755 25.0205 58.7474 24.5846C57.9369 24.1487 57.3378 23.5908 56.9502 22.9108L59.2231 21.1062C59.9279 22.4138 60.6503 23.4862 61.3904 24.3231C61.6899 24.0964 61.9366 23.8349 62.1304 23.5385C62.3418 23.2246 62.4476 22.9195 62.4476 22.6231C62.4476 22.1349 62.2626 21.7164 61.8925 21.3677C61.5401 21.0015 60.9851 20.5656 60.2275 20.06C59.6108 19.659 59.1174 19.3103 58.7474 19.0138C58.3774 18.7174 58.0602 18.36 57.7959 17.9415C57.5492 17.5231 57.4259 17.0523 57.4259 16.5292C57.4259 15.8841 57.6373 15.2651 58.0602 14.6723C58.5007 14.0795 59.1086 13.6 59.8839 13.2338C60.6591 12.8677 61.5401 12.6846 62.5269 12.6846C63.2845 12.6846 63.9981 12.8503 64.6677 13.1815C65.3548 13.4954 65.9099 13.8964 66.3327 14.3846L64.2712 16.3985C63.4255 15.3349 62.4916 14.3846 61.4697 13.5477C61.1701 13.9313 61.0204 14.4282 61.0204 15.0385Z" fill="#9C98B2"/>
<path d="M68.7581 7.55846L72.1411 6.8V9.78154L68.7581 10.2785V7.55846ZM72.4054 24.0092L73.3833 24.0877V24.8462H67.7009V24.0877L68.6788 24.0092L68.5995 14.6985L67.5952 14.9077L67.3309 14.1492L72.1147 12.6846L72.4847 13.3123L72.4054 24.0092Z" fill="#9C98B2"/>
<path d="M80.5057 12.6846C82.2677 12.6846 83.6861 13.199 84.7609 14.2277C85.8357 15.2564 86.3732 16.721 86.3732 18.6215C86.3732 19.441 86.2234 20.2867 85.9239 21.1585C85.6419 22.0303 85.2191 22.7974 84.6552 23.46C84.0914 24.0005 83.4306 24.4364 82.673 24.7677C81.9329 25.0815 81.1489 25.2385 80.3207 25.2385C78.5587 25.2385 77.1403 24.7241 76.0655 23.6954C74.9907 22.6667 74.4533 21.2021 74.4533 19.3015C74.4533 18.4995 74.6031 17.6626 74.9026 16.7908C75.2021 15.919 75.6338 15.1518 76.1977 14.4892C76.7615 13.9487 77.4134 13.5128 78.1535 13.1815C78.9111 12.8503 79.6952 12.6846 80.5057 12.6846ZM78.2592 18.0462C78.2592 19.7026 78.5852 20.9405 79.2371 21.76C79.9067 22.5795 80.8846 23.0677 82.1708 23.2246C82.2942 22.7015 82.3911 22.1174 82.4615 21.4723C82.532 20.8272 82.5673 20.2954 82.5673 19.8769C82.5673 18.2031 82.2325 16.9651 81.5629 16.1631C80.911 15.3436 79.9507 14.8554 78.6821 14.6985C78.5587 15.239 78.453 15.8318 78.3649 16.4769C78.2944 17.1221 78.2592 17.6451 78.2592 18.0462Z" fill="#9C98B2"/>
<path d="M100 24.0877V24.8462H94.344V24.0877L95.3219 24.0092V18.4908C95.3219 17.7236 95.1017 17.1308 94.6612 16.7123C94.2383 16.2938 93.648 16.0759 92.8904 16.0585L92.0446 16.9215L91.9389 24.0092L92.9168 24.0877V24.8462H87.2344V24.0877L88.2123 24.0092L88.133 14.6462L87.1287 14.8815L86.8644 14.0969L91.0403 12.8154L91.9653 15.7446L94.159 12.6323C95.8329 12.6323 97.0663 13.0246 97.8592 13.8092C98.6521 14.5938 99.0485 15.8056 99.0485 17.4446V24.0092L100 24.0877Z" fill="#9C98B2"/>
</svg>
