<svg width="87" height="35" viewBox="0 0 87 35" fill="none" xmlns="http://www.w3.org/2000/svg">
<path fill-rule="evenodd" clip-rule="evenodd" d="M27.3323 0L23.2907 7.05209L30.7246 20.1421L22.2523 34.9252L3.39167 35L7.43363 27.9473L0 14.8579L8.47234 0.0747507L27.3323 0ZM9.37939 24.3261L21.2946 3.5356L10.4757 3.57848L4.00683 14.8659L9.37939 24.3261ZM21.3449 10.6733L9.42936 31.4644L20.2489 31.4215L26.7178 20.1341L21.3449 10.6733Z" fill="#9C98B2"/>
<path fill-rule="evenodd" clip-rule="evenodd" d="M40.1032 7.65758C39.9297 7.80478 39.8132 7.97039 39.7539 8.15439C39.6945 8.3384 39.6648 8.5339 39.6648 8.74091C39.6648 8.94792 39.7539 9.13882 39.9319 9.31363C40.11 9.48844 40.3452 9.63564 40.6374 9.75524C40.9297 9.87485 41.263 9.98065 41.6375 10.0727C42.0119 10.1647 42.3932 10.259 42.7813 10.3556C43.1695 10.4522 43.5508 10.5626 43.9252 10.6868C44.2997 10.811 44.633 10.9697 44.9252 11.1629C45.5737 11.5769 45.8979 12.1427 45.8979 12.8603C45.8979 13.716 45.5805 14.3692 44.9458 14.82C44.3111 15.2708 43.4321 15.4962 42.3087 15.4962C41.0393 15.4962 40.0712 15.2294 39.4045 14.6958C38.8109 14.2174 38.473 13.5366 38.3908 12.6533H39.4593C39.4959 13.279 39.7972 13.7574 40.3635 14.0886C40.8566 14.3738 41.5096 14.5164 42.3224 14.5164C44.0211 14.5164 44.8705 13.9782 44.8705 12.9017C44.8705 12.5337 44.7175 12.2439 44.4115 12.0323C44.1056 11.8207 43.722 11.6459 43.2608 11.5079C42.7996 11.3699 42.3019 11.2411 41.7676 11.1215C41.2334 11.0019 40.7356 10.8478 40.2744 10.6592C39.8132 10.4706 39.4297 10.2222 39.1237 9.91395C38.8178 9.60574 38.6648 9.18943 38.6648 8.66501C38.6648 7.91978 38.9479 7.31257 39.5141 6.84335C40.0804 6.37413 40.9343 6.13953 42.0758 6.13953C43.2266 6.13953 44.117 6.40633 44.7472 6.93995C45.3225 7.40917 45.6285 8.01178 45.665 8.74781H44.6102C44.5188 7.99338 44.0348 7.49197 43.1581 7.24356C42.8476 7.15156 42.4617 7.10556 42.0005 7.10556C41.5393 7.10556 41.1512 7.15846 40.8361 7.26426C40.521 7.37007 40.2767 7.50117 40.1032 7.65758ZM48.3118 15.3842V9.39477H46.9145V8.48394H48.3118V6.01366H49.3393V8.48394H50.9147V9.39477H49.3393V15.3842H48.3118ZM57.5481 14.2807C57.0002 15.0903 56.1828 15.4951 55.096 15.4951C54.1097 15.4951 53.306 15.1501 52.685 14.4601C52.0822 13.7792 51.7809 12.9374 51.7809 11.9346C51.7809 10.9317 52.0822 10.0899 52.685 9.40911C53.306 8.71908 54.1325 8.37407 55.1645 8.37407C56.1965 8.37407 56.9911 8.78348 57.5481 9.60231V8.48448H58.5756V15.3847H57.5481V14.2807ZM55.2334 14.5559C55.9731 14.5559 56.5576 14.2983 56.9869 13.783C57.3978 13.2954 57.6033 12.679 57.6033 11.9338C57.6033 11.1885 57.3978 10.5721 56.9869 10.0845C56.5576 9.5693 55.9731 9.31169 55.2334 9.31169C54.5028 9.31169 53.9092 9.5693 53.4525 10.0845C53.0233 10.5721 52.8087 11.1885 52.8087 11.9338C52.8087 12.679 53.0233 13.2954 53.4525 13.783C53.9092 14.2983 54.5028 14.5559 55.2334 14.5559ZM64.2774 8.37407V9.40911H64.1541C63.4143 9.40911 62.8116 9.70811 62.3458 10.3061C61.9074 10.8766 61.6883 11.5574 61.6883 12.3486V15.3847H60.6608V8.48448H61.6883V10.1819C61.9075 9.4643 62.3823 8.93529 63.113 8.59488C63.4143 8.44767 63.7797 8.37407 64.2089 8.37407H64.2774ZM66.4317 15.3842V9.39477H65.0344V8.48394H66.4317V6.01366H67.4591V8.48394H69.0345V9.39477H67.4591V15.3842H66.4317ZM75.4072 15.3838V14.3074C75.1606 14.6386 74.8592 14.9192 74.503 15.1492C74.1468 15.3792 73.7404 15.4942 73.2838 15.4942C72.8272 15.4942 72.4345 15.4298 72.1057 15.301C71.7769 15.1722 71.4892 14.979 71.2427 14.7214C70.6764 14.1602 70.3933 13.4196 70.3933 12.4995V8.4836H71.4207V12.4719C71.4207 13.1068 71.5988 13.6128 71.955 13.99C72.3112 14.3672 72.7724 14.5558 73.3386 14.5558C73.914 14.5558 74.4026 14.3626 74.8044 13.9762C75.2062 13.5806 75.4072 13.0746 75.4072 12.4581V8.4836H76.4346V15.3838H75.4072ZM79.5469 9.58851C80.0949 8.77888 80.9123 8.37407 81.9991 8.37407C82.9854 8.37407 83.7845 8.71908 84.3964 9.40911C85.0083 10.0899 85.3142 10.9317 85.3142 11.9346C85.3142 12.9374 85.0083 13.7792 84.3964 14.4601C83.7845 15.1501 82.9626 15.4951 81.9306 15.4951C80.8986 15.4951 80.104 15.0857 79.5469 14.2669V18.1172H78.5195V8.48448H79.5469V9.58851ZM81.8635 9.31169C81.1237 9.31169 80.5392 9.5693 80.11 10.0845C79.699 10.5721 79.4935 11.1885 79.4935 11.9338C79.4935 12.679 79.699 13.2954 80.11 13.783C80.5392 14.2983 81.1237 14.5559 81.8635 14.5559C82.5941 14.5559 83.1877 14.2983 83.6443 13.783C84.0736 13.2954 84.2882 12.679 84.2882 11.9338C84.2882 11.1885 84.0736 10.5721 83.6443 10.0845C83.1877 9.5693 82.5941 9.31169 81.8635 9.31169ZM46.5146 20.5692L42.8433 29.7051H41.6651L37.9938 20.5692H39.1171L42.2542 28.5321L45.3913 20.5692H46.5146ZM50.176 28.8778C51.0984 28.8778 51.7605 28.4914 52.1624 27.7186H53.2857C53.0483 28.3442 52.6715 28.8502 52.1555 29.2366C51.6395 29.6231 50.9751 29.8163 50.1623 29.8163C49.1303 29.8163 48.2901 29.4712 47.6417 28.7812C47.0115 28.1096 46.6965 27.2678 46.6965 26.2557C46.6965 25.2345 46.9978 24.3927 47.6006 23.7303C48.2399 23.0402 49.071 22.6952 50.0938 22.6952C51.1167 22.6952 51.9478 23.0402 52.5871 23.7303C53.1898 24.3927 53.4912 25.2345 53.4912 26.2557V26.6698H47.7513C47.8244 27.3046 48.0755 27.829 48.5047 28.243C48.9431 28.6662 49.5002 28.8778 50.176 28.8778ZM50.0928 23.6328C49.4627 23.6328 48.933 23.8306 48.5037 24.2262C48.1019 24.6035 47.8553 25.0957 47.764 25.7029H52.4217C52.3303 25.0957 52.0838 24.6035 51.6819 24.2262C51.2527 23.8306 50.723 23.6328 50.0928 23.6328ZM56.0816 22.8056V23.8821C56.3282 23.5509 56.6296 23.2702 56.9857 23.0402C57.3419 22.8102 57.7483 22.6952 58.205 22.6952C58.6616 22.6952 59.0543 22.7596 59.3831 22.8884C59.7119 23.0172 59.9995 23.2104 60.2461 23.4681C60.8123 24.0293 61.0955 24.7699 61.0955 25.6899V29.7059H60.068V25.7175C60.068 25.0827 59.8899 24.5767 59.5338 24.1995C59.1776 23.8223 58.7164 23.6337 58.1502 23.6337C57.5748 23.6337 57.0862 23.8269 56.6844 24.2133C56.2825 24.6089 56.0816 25.1149 56.0816 25.7313V29.7059H55.0542V22.8056H56.0816ZM63.6885 29.7053V23.7159H62.2912V22.8051H63.6885V20.3348H64.7159V22.8051H66.2913V23.7159H64.7159V29.7053H63.6885ZM72.6639 29.7049V28.6285C72.4173 28.9597 72.1159 29.2403 71.7597 29.4703C71.4035 29.7003 70.9971 29.8153 70.5405 29.8153C70.0839 29.8153 69.6912 29.7509 69.3624 29.6221C69.0336 29.4933 68.7459 29.3001 68.4993 29.0425C67.9331 28.4813 67.65 27.7406 67.65 26.8206V22.8047H68.6774V26.793C68.6774 27.4278 68.8555 27.9338 69.2117 28.3111C69.5679 28.6883 70.0291 28.8769 70.5953 28.8769C71.1707 28.8769 71.6593 28.6837 72.0611 28.2972C72.4629 27.9016 72.6639 27.3956 72.6639 26.7792V22.8047H73.6913V29.7049H72.6639ZM79.394 22.6952V23.7303H79.2707C78.531 23.7303 77.9282 24.0293 77.4624 24.6273C77.0241 25.1977 76.8049 25.8785 76.8049 26.6698V29.7059H75.7774V22.8056H76.8049V24.5031C77.0241 23.7855 77.499 23.2564 78.2296 22.916C78.531 22.7688 78.8963 22.6952 79.3255 22.6952H79.394ZM83.6848 28.8778C84.6072 28.8778 85.2694 28.4914 85.6712 27.7186H86.7945C86.5571 28.3442 86.1803 28.8502 85.6643 29.2366C85.1483 29.6231 84.4839 29.8163 83.6711 29.8163C82.6391 29.8163 81.7989 29.4712 81.1505 28.7812C80.5204 28.1096 80.2053 27.2678 80.2053 26.2557C80.2053 25.2345 80.5066 24.3927 81.1094 23.7303C81.7487 23.0402 82.5798 22.6952 83.6026 22.6952C84.6255 22.6952 85.4566 23.0402 86.0959 23.7303C86.6986 24.3927 87 25.2345 87 26.2557V26.6698H81.2601C81.3332 27.3046 81.5843 27.829 82.0135 28.243C82.4519 28.6662 83.009 28.8778 83.6848 28.8778ZM83.6019 23.6328C82.9717 23.6328 82.442 23.8306 82.0128 24.2262C81.6109 24.6035 81.3644 25.0957 81.273 25.7029H85.9307C85.8394 25.0957 85.5928 24.6035 85.191 24.2262C84.7617 23.8306 84.232 23.6328 83.6019 23.6328Z" fill="#9C98B2"/>
</svg>
